:FULLY-SPECIFIED
:FORCE-ALL-JOINTS-BE-3DOF
:DEGREES
136
root 7.89234 16.5756 -26.2855 -11.0515 7.23053 5.83809
lfemur -4.31814 12.3931 -22.3933
ltibia 34.4966 0 0
lfoot -17.7479 -8.99559 0
ltoes 27.0173 0 0
rfemur -100.119 -27.4918 63.151
rtibia 78.024 0 0
rfoot -5.73936 19.8654 0
rtoes -39.8077 0 0
lowerback 17.115 -2.39456 -9.28201
upperback 5.779 -4.71693 -1.7236
thorax -2.75037 -2.38695 4.27457
lowerneck -12.7796 -0.398285 0.176975
upperneck 0.970215 -0.690841 2.70893
head 2.55182 -0.243793 0.804476
lclavicle -1.48519e-14 -1.55267e-14 0
lhumerus -42.0596 -19.9558 90.1727
lradius 54.1975 0 0
lwrist 17.0263 0 0
lhand 8.02361 5.89632 0
lfingers 7.12502 0 0
lthumb 33.2463 32.8144 0
rclavicle -1.48519e-14 -1.55267e-14 0
rhumerus -42.4573 -23.9347 -56.184
rradius 77.9752 0 0
rwrist -34.6714 0 0
rhand -4.91489 -26.0989 0
rfingers 7.12502 0 0
rthumb 20.8572 -69.1935 0
137
root 7.85908 16.5569 -26.2798 -10.825 7.86213 5.81698
lfemur -4.86239 12.7165 -22.2656
ltibia 35.01 0 0
lfoot -18.1317 -9.58951 0
ltoes 26.2752 0 0
rfemur -101.097 -27.9391 63.324
rtibia 81.4899 0 0
rfoot -2.65261 20.4858 0
rtoes -37.8162 0 0
lowerback 17.126 -2.61082 -9.37279
upperback 5.72856 -5.01662 -1.83815
thorax -2.77897 -2.53041 4.25806
lowerneck -12.7155 -0.462108 0.0589629
upperneck 0.885166 -0.765253 2.93164
head 2.51848 -0.275486 0.892962
lclavicle -1.68286e-14 -1.68331e-14 0
lhumerus -41.594 -20.7723 90.0976
lradius 53.783 0 0
lwrist 16.6881 0 0
lhand 8.80278 6.15285 0
lfingers 7.12502 0 0
lthumb 33.9859 32.9003 0
rclavicle -1.68286e-14 -1.68331e-14 0
rhumerus -43.1339 -24.4318 -56.7884
rradius 79.016 0 0
rwrist -34.2896 0 0
rhand -9.25903 -30.1219 0
rfingers 7.12502 0 0
rthumb 16.6748 -85.2369 0
138
root 7.81646 16.5372 -26.2754 -10.513 8.74334 5.71385
lfemur -5.58684 13.0724 -22.0392
ltibia 35.605 0 0
lfoot -18.5675 -10.4029 0
ltoes 25.389 0 0
rfemur -101.976 -28.3108 62.8905
rtibia 85.7891 0 0
rfoot 1.56205 21.1253 0
rtoes -34.7236 0 0
lowerback 17.112 -2.88974 -9.40982
upperback 5.65031 -5.38823 -1.94883
thorax -2.81921 -2.70753 4.2274
lowerneck -12.6226 -0.56981 -0.0837818
upperneck 0.77055 -0.895213 3.20091
head 2.4716 -0.333927 0.99779
lclavicle -1.95619e-14 -1.82143e-14 0
lhumerus -40.9613 -21.7757 90.0241
lradius 53.1723 0 0
lwrist 16.1851 0 0
lhand 9.80695 6.50208 0
lfingers 7.12502 0 0
lthumb 34.9392 33.03 0
rclavicle -1.95619e-14 -1.82143e-14 0
rhumerus -44.013 -24.8384 -57.5838
rradius 80.2001 0 0
rwrist -33.3664 0 0
rhand -14.8952 -35.2644 0
rfingers 7.12502 0 0
rthumb 11.2486 -105.867 0
139
root 7.7655 16.5176 -26.2723 -10.1158 9.86339 5.51617
lfemur -6.47657 13.4554 -21.7086
ltibia 36.2456 0 0
lfoot -19.0155 -11.3724 0
ltoes 24.4226 0 0
rfemur -102.618 -28.5631 61.7333
rtibia 90.7301 0 0
rfoot 6.76273 21.7141 0
rtoes -30.5763 0 0
lowerback 17.0587 -3.22355 -9.37593
upperback 5.54157 -5.81819 -2.04403
thorax -2.86832 -2.91181 4.1815
lowerneck -12.502 -0.723566 -0.245406
upperneck 0.632147 -1.08413 3.50427
head 2.41313 -0.421117 1.11372
lclavicle -2.29999e-14 -1.95209e-14 0
lhumerus -40.187 -22.9343 89.9739
lradius 52.3799 0 0
lwrist 15.5274 0 0
lhand 11.017 6.94645 0
lfingers 7.12502 0 0
lthumb 36.0874 33.2054 0
rclavicle -2.29999e-14 -1.95209e-14 0
rhumerus -45.069 -25.1005 -58.5553
rradius 81.4758 0 0
rwrist -31.8622 0 0
rhand -21.5181 -41.242 0
rfingers 7.12502 0 0
rthumb 4.87207 -130.466 0
140
root 7.70773 16.4988 -26.2703 -9.63874 11.1886 5.22318
lfemur -7.50234 13.8725 -21.2804
ltibia 36.8918 0 0
lfoot -19.4278 -12.3874 0
ltoes 23.4578 0 0
rfemur -102.901 -28.6778 59.8317
rtibia 96.0547 0 0
rfoot 12.6691 22.1832 0
rtoes -25.5765 0 0
lowerback 16.9511 -3.60003 -9.26407
upperback 5.40145 -6.28884 -2.11473
thorax -2.92111 -3.13501 4.121
lowerneck -12.3583 -0.920443 -0.419047
upperneck 0.48021 -1.32886 3.82658
head 2.34708 -0.535811 1.23483
lclavicle -2.70147e-14 -2.05945e-14 0
lhumerus -39.3185 -24.2102 89.9751
lradius 51.4472 0 0
lwrist 14.7476 0 0
lhand 12.4029 7.48498 0
lfingers 7.12502 0 0
lthumb 37.4009 33.4246 0
rclavicle -2.70147e-14 -2.05945e-14 0
rhumerus -46.2603 -25.1917 -59.675
rradius 82.8008 0 0
rwrist -29.822 0 0
rhand -28.642 -47.6211 0
rfingers 7.12502 0 0
rthumb -1.98799 -158.078 0
141
root 7.64521 16.4811 -26.2683 -9.09263 12.6625 4.84593
lfemur -8.62065 14.3422 -20.7735
ltibia 37.4997 0 0
lfoot -19.7487 -13.2903 0
ltoes 22.5949 0 0
rfemur -102.72 -28.663 57.2618
rtibia 101.438 0 0
rfoot 18.8625 22.4641 0
rtoes -20.0828 0 0
lowerback 16.7732 -4.00246 -9.07728
upperback 5.23092 -6.77844 -2.1545
thorax -2.97003 -3.36713 4.04825
lowerneck -12.1989 -1.15241 -0.596829
upperneck 0.329466 -1.61973 4.15005
head 2.27947 -0.673517 1.35451
lclavicle -3.14028e-14 -2.1268e-14 0
lhumerus -38.4255 -25.5598 90.0624
lradius 50.443 0 0
lwrist 13.9005 0 0
lhand 13.9234 8.11326 0
lfingers 7.12502 0 0
lthumb 38.8393 33.6817 0
rclavicle -3.14028e-14 -2.1268e-14 0
rhumerus -47.5292 -25.1131 -60.9024
rradius 84.1422 0 0
rwrist -27.3755 0 0
rhand -35.6007 -53.819 0
rfingers 7.12502 0 0
rthumb -8.69147 -187.406 0
142
root 7.58053 16.4642 -26.2647 -8.49335 14.2055 4.40722
lfemur -9.7737 14.895 -20.2191
ltibia 38.0216 0 0
lfoot -19.9146 -13.8761 0
ltoes 21.9524 0 0
rfemur -101.989 -28.5523 54.1964
rtibia 106.489 0 0
rfoot 24.7858 22.489 0
rtoes -14.6097 0 0
lowerback 16.5084 -4.40967 -8.82876
upperback 5.03273 -7.26117 -2.15952
thorax -3.00515 -3.59639 3.96733
lowerneck -12.0349 -1.40632 -0.769868
upperneck 0.199111 -1.94049 4.45422
head 2.21842 -0.826499 1.46545
lclavicle -3.58846e-14 -2.13654e-14 0
lhumerus -37.6 -26.9332 90.2765
lradius 49.463 0 0
lwrist 13.0632 0 0
lhand 15.5263 8.82346 0
lfingers 7.12502 0 0
lthumb 40.3512 33.9673 0
rclavicle -3.58846e-14 -2.13654e-14 0
rhumerus -48.8016 -24.8933 -62.1841
rradius 85.4767 0 0
rwrist -24.7364 0 0
rhand -41.548 -59.1043 0
rfingers 7.12502 0 0
rthumb -14.425 -216.815 0
